<svg width="32" height="32" viewBox="0 0 32 32" fill="none" xmlns="http://www.w3.org/2000/svg">
<path d="M31.7319 10.4291L21.4596 5.56344C21.2256 5.45275 20.9461 5.55244 20.8353 5.78644L18.4936 10.7303V2.34375C18.4936 1.05138 17.4422 0 16.1498 0H2.34375C1.05138 0 0 1.05138 0 2.34375V3.47919C0 3.73806 0.209813 3.94794 0.46875 3.94794C0.727688 3.94794 0.9375 3.73806 0.9375 3.47919V2.34375C0.9375 1.56831 1.56838 0.9375 2.34375 0.9375H4.88975L5.96956 2.33956C6.29269 2.75913 6.80169 3.00963 7.33125 3.00963H11.1651C11.6953 3.00963 12.2049 2.75856 12.5281 2.338L13.604 0.9375H16.1498C16.9251 0.9375 17.556 1.56831 17.556 2.34375V12.4583H0.9375V5.1875C0.9375 4.92863 0.727688 4.71875 0.46875 4.71875C0.209813 4.71875 0 4.92863 0 5.1875V29.6563C0 30.9486 1.05138 32 2.34375 32H16.1498C17.4421 32 18.4935 30.9486 18.4935 29.6563V27.6825L22.6313 29.6424C22.8548 29.7481 23.1441 29.6548 23.2556 29.4194L25.0549 25.6207C25.1657 25.3868 25.0659 25.1073 24.832 24.9964C24.5981 24.8857 24.3185 24.9854 24.2077 25.2194L22.6091 28.5945L18.4935 26.6451V25.8493L20.5246 26.8114C20.6908 26.8853 20.8524 26.8684 21.0092 26.7607C21.5113 26.3784 22.1068 26.1608 22.7313 26.1313C22.9043 26.1231 23.0586 26.0203 23.1328 25.8638L29.1259 13.2108C29.2001 13.0543 29.1819 12.8697 29.0786 12.7306C28.7058 12.2288 28.4969 11.6303 28.4746 10.9996C28.4684 10.8245 28.3651 10.6675 28.2068 10.5925L23.5664 8.3945C23.4081 8.31956 23.2211 8.33912 23.0818 8.44519C22.5797 8.82744 21.9841 9.04506 21.3596 9.07456C21.1866 9.08275 21.0323 9.18563 20.9581 9.34213L18.4935 14.5454V12.9204L21.4818 6.61138L30.9069 11.0756L24.9289 23.6966C24.8182 23.9306 24.9179 24.21 25.1519 24.3209C25.3719 24.425 25.6711 24.3196 25.7762 24.0979L31.9548 11.0533C32.0657 10.8194 31.9659 10.5399 31.7319 10.4291ZM11.7847 1.76675C11.6378 1.95794 11.4061 2.07206 11.1651 2.07206H7.33131C7.09063 2.07206 6.85925 1.95819 6.71244 1.7675L6.07313 0.9375H12.4218L11.7847 1.76675ZM17.556 13.3957V20.5869H0.9375V13.3957H17.556ZM16.1498 31.0625H2.34375C1.56838 31.0625 0.9375 30.4317 0.9375 29.6563V21.5244H17.556V29.6562C17.556 30.4317 16.9252 31.0625 16.1498 31.0625ZM18.5205 16.6786L21.6899 9.98731C22.3048 9.91413 22.8914 9.70013 23.4123 9.35888L27.5582 11.3226C27.6242 11.9418 27.8303 12.5313 28.1632 13.0533L22.4011 25.2185C21.7861 25.2917 21.1996 25.5057 20.6787 25.8469L18.4936 24.8119V16.7277C18.5034 16.7121 18.5124 16.6957 18.5205 16.6786Z" fill="white"/>
<path d="M19.5768 17.0588L19.6934 17.114C19.6257 18.0262 20.4584 18.8054 21.3712 18.5171C21.8494 18.3662 22.1712 17.9661 22.5047 17.6192C22.7068 17.4087 23.1347 17.3066 23.3249 17.6309C23.4419 17.8308 23.415 18.0332 23.3717 18.1679C23.286 18.4348 23.0654 18.6752 22.7959 18.7953C22.5594 18.9007 22.4532 19.1778 22.5585 19.4142C22.6581 19.6379 22.9559 19.7503 23.1774 19.6516C23.4571 19.527 23.705 19.3374 23.8998 19.1064C24.1603 19.2722 24.5076 19.2486 24.6536 18.9449C24.7644 18.7109 24.6646 18.4314 24.4307 18.3206L24.3137 18.2651C24.6127 16.7515 22.8927 15.9096 21.8284 16.9698C21.6256 17.1809 21.3787 17.5316 21.089 17.6231C20.7861 17.6664 20.6323 17.524 20.6275 17.1959C20.6467 16.8392 20.9885 16.682 21.0031 16.6755C21.6057 16.4292 21.2594 15.5704 20.6382 15.8119C20.4715 15.881 20.2442 16.0252 20.0538 16.2474L19.9781 16.2115C19.7442 16.1007 19.4646 16.2005 19.3538 16.4345C19.243 16.6685 19.3428 16.948 19.5768 17.0588Z" fill="white"/>
<path d="M23.4401 14.658C23.66 14.7622 23.9594 14.6567 24.0644 14.435L24.9508 12.5635C25.0615 12.3295 24.9618 12.0501 24.7278 11.9392C24.494 11.8285 24.2144 11.9282 24.1035 12.1622L23.2171 14.0337C23.1063 14.2677 23.2061 14.5471 23.4401 14.658Z" fill="white"/>
<path d="M19.362 23.2664C19.5819 23.3706 19.8812 23.2651 19.9862 23.0434L20.8727 21.1719C20.9834 20.9379 20.8837 20.6585 20.6497 20.5476C20.4159 20.4369 20.1362 20.5366 20.0254 20.7706L19.139 22.6421C19.0282 22.8761 19.128 23.1556 19.362 23.2664Z" fill="white"/>
<path d="M11.6281 6.94817C11.573 6.77848 11.4263 6.65486 11.2497 6.62917L10.1555 6.47011L9.66604 5.47823C9.49735 5.13616 8.99404 5.13616 8.82535 5.47823L8.33591 6.47011L7.24159 6.62917C6.86415 6.68405 6.70884 7.16242 6.98184 7.42867L7.77372 8.2008L7.58678 9.29112C7.52216 9.66712 7.93103 9.962 8.26691 9.78525L9.24572 9.27056L10.2244 9.78525C10.5862 9.9755 10.9636 9.63499 10.9047 9.29112L10.7177 8.2008L11.5096 7.42867C11.6372 7.30411 11.6832 7.11786 11.6281 6.94817ZM9.88673 7.70155C9.77629 7.80924 9.72591 7.96436 9.75198 8.11636L9.82004 8.5133L9.46391 8.32599C9.32729 8.25418 9.16404 8.25418 9.0276 8.32599L8.67135 8.5133L8.73941 8.11636C8.76554 7.9643 8.7151 7.80917 8.60466 7.70149L8.31628 7.4203L8.71479 7.36236C8.86741 7.34017 8.99947 7.24423 9.06766 7.10586L9.24579 6.74492L9.42391 7.10586C9.49216 7.24423 9.62416 7.34017 9.77679 7.36236L10.1753 7.4203L9.88673 7.70155Z" fill="white"/>
<path d="M11.9309 10.5584C12.0356 10.7029 12.2131 10.7754 12.3891 10.7456L13.2536 10.5987L13.8646 11.2277C14.1389 11.51 14.61 11.3408 14.6646 10.9693L14.7923 10.1013L15.5794 9.71432C15.9218 9.54607 15.9224 9.043 15.5807 8.87363L14.7949 8.48425L14.6704 7.616C14.6163 7.23837 14.1379 7.08225 13.8713 7.35487L13.258 7.98206L12.3939 7.83244C12.0502 7.77306 11.709 8.1495 11.8986 8.51175L12.3054 9.28888L11.896 10.0648C11.8127 10.2225 11.8262 10.4139 11.9309 10.5584ZM13.2503 9.07238L13.1696 8.91832L13.3409 8.948C13.493 8.97432 13.6482 8.92413 13.756 8.81382L13.8773 8.68975L13.902 8.8615C13.9239 9.01425 14.0196 9.14638 14.1579 9.21494L14.3136 9.29213L14.1576 9.36888C14.0191 9.43694 13.923 9.56876 13.9006 9.72138L13.8753 9.89332L13.7544 9.76882C13.6273 9.65357 13.489 9.60844 13.3396 9.63332L13.1684 9.66238L13.2496 9.50869C13.3216 9.37213 13.3218 9.209 13.2503 9.07238Z" fill="white"/>
<path d="M6.55762 8.01777C6.45243 7.87358 6.27424 7.80158 6.09887 7.83202L5.2348 7.98164L4.62155 7.35445C4.35498 7.08164 3.87654 7.23802 3.82242 7.61552L3.69779 8.48377L2.91204 8.87321C2.57035 9.04252 2.57116 9.54565 2.91342 9.71384L3.70054 10.1008L3.82817 10.9688C3.88273 11.3403 4.35386 11.5095 4.62817 11.2272L5.23917 10.5982L6.10368 10.7452C6.44749 10.8035 6.78774 10.4258 6.59681 10.0642L6.1873 9.28834L6.59412 8.51121C6.67687 8.35327 6.66274 8.16196 6.55762 8.01777ZM5.15324 9.63271C5.00086 9.60684 4.84599 9.65759 4.73842 9.76821L4.61749 9.89271L4.59217 9.72078C4.5698 9.56815 4.47367 9.43634 4.33523 9.36827L4.17917 9.29152L4.33492 9.21434C4.47311 9.14584 4.5688 9.01371 4.59073 8.86096L4.61542 8.68915L4.7368 8.81327C4.84461 8.92359 4.99992 8.97371 5.15192 8.94746L5.32311 8.91777L5.24249 9.07184C5.17092 9.20852 5.17117 9.37159 5.24324 9.50803L5.32436 9.66171L5.15324 9.63271Z" fill="white"/>
<path d="M11.5115 26.5535L10.7197 25.7814L10.9066 24.6911C10.971 24.3153 10.5639 24.0193 10.2264 24.197L9.24766 24.7117L8.26897 24.197C7.93141 24.0195 7.52428 24.3152 7.58872 24.6911L7.77566 25.7814L6.98378 26.5535C6.71078 26.8198 6.86615 27.2981 7.24353 27.353L8.33785 27.5121L8.82729 28.5039C8.99597 28.846 9.49929 28.846 9.66798 28.5039L10.1574 27.5121L11.2517 27.353C11.6292 27.2981 11.7845 26.8197 11.5115 26.5535ZM9.77867 26.6198C9.62604 26.6419 9.49398 26.7379 9.42579 26.8763L9.24766 27.2371L9.06954 26.8763C9.00129 26.7379 8.86929 26.6419 8.71666 26.6198L8.31816 26.5618L8.60654 26.2806C8.71704 26.1729 8.76741 26.0178 8.74135 25.8657L8.67329 25.4688L9.02941 25.6561C9.16604 25.7279 9.32923 25.7279 9.46579 25.6561L9.82192 25.4688L9.75385 25.8657C9.72779 26.0178 9.77823 26.1729 9.88867 26.2806L10.177 26.5618L9.77867 26.6198Z" fill="white"/>
<path d="M6.56188 23.4241C6.45719 23.2796 6.2795 23.2071 6.10369 23.237L5.23918 23.3839L4.62818 22.7549C4.36243 22.4814 3.88361 22.6359 3.82818 23.0133L3.70055 23.8813L2.91336 24.2683C2.57111 24.4366 2.57042 24.9395 2.91205 25.109L3.69774 25.4983L3.82236 26.3667C3.87568 26.7384 4.34649 26.9091 4.62149 26.6277L5.23475 26.0005L6.09881 26.1502C6.4745 26.2149 6.771 25.8089 6.59406 25.4708L6.18725 24.6937L6.59675 23.9178C6.68013 23.7601 6.66656 23.5686 6.56188 23.4241ZM5.2425 24.9102L5.32318 25.0643L5.15193 25.0347C4.99962 25.0083 4.84462 25.0586 4.73681 25.1688L4.61543 25.293L4.59074 25.1211C4.56881 24.9684 4.47312 24.8362 4.33487 24.7677L4.17918 24.6906L4.3353 24.6138C4.47374 24.5458 4.56981 24.414 4.59218 24.2613L4.61749 24.0894L4.73843 24.2139C4.84599 24.3246 5.00087 24.3755 5.15324 24.3494L5.32431 24.3203L5.24318 24.474C5.17118 24.6105 5.171 24.7735 5.2425 24.9102Z" fill="white"/>
<path d="M15.5804 24.2683L14.7933 23.8813L14.6656 23.0133C14.6102 22.6359 14.1314 22.4814 13.8656 22.7549L13.2546 23.3839L12.3901 23.237C12.0142 23.1732 11.7189 23.5805 11.897 23.9179L12.3064 24.6938L11.8996 25.4709C11.7226 25.809 12.0192 26.2148 12.3949 26.1502L13.259 26.0006L13.8723 26.6278C14.1473 26.9092 14.6181 26.7384 14.6714 26.3667L14.7959 25.4984L15.5817 25.109C15.9234 24.9396 15.9226 24.4366 15.5804 24.2683ZM14.1589 24.7677C14.0206 24.8362 13.9249 24.9684 13.903 25.1211L13.8783 25.293L13.757 25.1689C13.6297 25.0541 13.4913 25.0094 13.3419 25.0347L13.1706 25.0644L13.2512 24.9103C13.3228 24.7736 13.3226 24.6105 13.2505 24.4741L13.1694 24.3204L13.3405 24.3495C13.493 24.3755 13.6478 24.3246 13.7553 24.214L13.8763 24.0895L13.9016 24.2614C13.9239 24.414 14.0201 24.5458 14.1584 24.6139L14.3145 24.6906L14.1589 24.7677Z" fill="white"/>
<path d="M10.9492 19.4594C11.2081 19.4594 11.4179 19.2495 11.4179 18.9906V16.5029L13.2624 19.1737C13.4015 19.3745 13.6329 19.4601 13.8517 19.3916C14.0755 19.3217 14.2202 19.1114 14.2202 18.8513L14.1828 14.9872C14.1804 14.7282 13.9679 14.5202 13.7095 14.523C13.4506 14.5255 13.2428 14.7374 13.2453 14.9962L13.2699 17.5347L11.335 14.7328C11.2183 14.564 11.0057 14.4907 10.8097 14.5517C10.6139 14.6127 10.4805 14.794 10.4805 14.9992V18.9906C10.4804 19.2495 10.6902 19.4594 10.9492 19.4594Z" fill="white"/>
<path d="M9.1543 19.4593C9.41324 19.4593 9.62305 19.2495 9.62305 18.9906V14.9917C9.60155 14.371 8.70686 14.3715 8.68555 14.9917V18.9906C8.68555 19.2495 8.89536 19.4593 9.1543 19.4593Z" fill="white"/>
<path d="M3.34654 19.0217C3.35091 19.044 3.35704 19.0661 3.36466 19.0876C3.44379 19.3104 3.6551 19.4595 3.89141 19.4595H3.89529C4.1331 19.4579 4.34429 19.3055 4.42073 19.0804C4.42204 19.0764 4.42342 19.0723 4.42467 19.0682L5.19348 16.5843L5.95886 19.0687C5.9608 19.075 5.96286 19.0813 5.96517 19.0875C6.0443 19.3104 6.25561 19.4594 6.49192 19.4594H6.49561C6.73336 19.4579 6.94461 19.3057 7.02118 19.0806C7.0278 19.0611 7.03311 19.0412 7.03718 19.0209L7.81943 15.0906C7.86999 14.8367 7.70512 14.5899 7.45118 14.5394C7.19711 14.4889 6.95043 14.6537 6.89999 14.9076L6.41255 17.3567L5.64148 14.8538C5.56523 14.6064 5.30286 14.4676 5.05548 14.5439C4.88617 14.596 4.76779 14.7353 4.73429 14.8974L3.97304 17.3569L3.48722 14.9009C3.43697 14.6469 3.19054 14.4819 2.93647 14.532C2.68253 14.5822 2.51735 14.8289 2.5676 15.0827L3.34654 19.0217Z" fill="white"/>
<path d="M15.4648 17.8801C15.7238 17.8801 15.9336 17.6702 15.9336 17.4113V14.9917C15.9121 14.371 15.0174 14.3715 14.9961 14.9917V17.4113C14.9961 17.6702 15.206 17.8801 15.4648 17.8801Z" fill="white"/>
<path d="M15.4642 18.5215C15.2086 18.5215 14.997 18.7354 14.9961 18.9902C15.028 19.6296 15.9383 19.6003 15.9327 18.9619C15.9177 18.7179 15.7086 18.5215 15.4642 18.5215Z" fill="white"/>
</svg>
