<svg width="33" height="32" viewBox="0 0 33 32" fill="none" xmlns="http://www.w3.org/2000/svg">
<g clip-path="url(#clip0_1454_217)">
<path d="M5.25878 13.4092C4.99991 13.4092 4.79004 13.619 4.79004 13.8779V27.0954C4.79004 27.3543 4.99991 27.5641 5.25878 27.5641H27.4066C27.6654 27.5641 27.8753 27.3543 27.8753 27.0954V13.8779C27.8753 13.619 27.6654 13.4092 27.4066 13.4092H5.25878ZM5.72751 14.3467H23.5512V26.6267H5.72751V14.3467ZM26.9378 26.6267H24.4886V14.3467H26.9378V26.6267Z" fill="white"/>
<path d="M31.0379 28.5016H29.7503V24.6242C29.7503 24.3653 29.5405 24.1555 29.2816 24.1555C29.0227 24.1555 28.8129 24.3653 28.8129 24.6242V28.5016H3.85266V13.2529C3.85266 12.8221 4.20308 12.4717 4.63388 12.4717H28.0316C28.4624 12.4717 28.8129 12.8221 28.8129 13.2529V22.6451C28.8129 22.904 29.0227 23.1138 29.2816 23.1138C29.5405 23.1138 29.7503 22.904 29.7503 22.6451V13.2529C29.7503 12.3052 28.9794 11.5342 28.0316 11.5342H4.63388C3.68616 11.5342 2.91518 12.3052 2.91518 13.2529V28.5016H1.6276C-0.579963 28.7109 0.520067 32.0644 2.72381 31.999C2.72381 31.999 29.9418 31.999 29.9418 31.999C32.1463 32.064 33.245 28.7102 31.0379 28.5016ZM29.9417 31.0615H2.72375C1.97421 31.0615 1.36442 30.4517 1.36442 29.7022C1.36442 29.5571 1.48248 29.439 1.62753 29.439H31.0379C31.183 29.439 31.301 29.5571 31.301 29.7022C31.301 30.4517 30.6913 31.0615 29.9417 31.0615Z" fill="white"/>
<path d="M21.0211 15.6572H17.8712C17.5671 15.6572 17.2877 15.7645 17.0687 15.9432C16.8497 15.7645 16.5703 15.6572 16.2662 15.6572H13.1163C12.8172 15.6572 12.5415 15.7587 12.3239 15.9318C12.1063 15.7587 11.8305 15.6572 11.5315 15.6572H8.38156C7.68059 15.6572 7.11035 16.2275 7.11035 16.9284V24.0448C7.11035 24.7458 7.68065 25.316 8.38156 25.316H11.5315C11.8306 25.316 12.1063 25.2146 12.3239 25.0414C12.5415 25.2146 12.8172 25.316 13.1163 25.316H16.2662C16.5703 25.316 16.8497 25.2087 17.0687 25.03C17.2877 25.2087 17.5671 25.316 17.8712 25.316H21.0211C21.722 25.316 22.2923 24.7458 22.2923 24.0448V16.9284C22.2923 16.2275 21.722 15.6572 21.0211 15.6572ZM21.3549 24.0449C21.3549 24.2288 21.2051 24.3786 21.0211 24.3786H17.8712C17.6871 24.3786 17.5374 24.2288 17.5374 24.0449C17.516 23.4243 16.6213 23.4246 16.5999 24.0449C16.5999 24.2288 16.4503 24.3786 16.2662 24.3786H13.1163C12.9532 24.3786 12.8117 24.257 12.7873 24.0956C12.6996 23.5682 11.948 23.5686 11.8605 24.0956C11.836 24.257 11.6945 24.3786 11.5315 24.3786H8.38156C8.19751 24.3786 8.04782 24.2288 8.04782 24.0449V16.9284C8.04782 16.7444 8.19757 16.5947 8.38156 16.5947H11.5315C11.6945 16.5947 11.836 16.7163 11.8605 16.8777C11.9481 17.4051 12.6998 17.4047 12.7873 16.8777C12.8118 16.7163 12.9532 16.5947 13.1163 16.5947H16.2662C16.4503 16.5947 16.5999 16.7444 16.5999 16.9284C16.6214 17.549 17.5161 17.5487 17.5374 16.9284C17.5374 16.7444 17.6872 16.5947 17.8712 16.5947H21.0211C21.2051 16.5947 21.3549 16.7444 21.3549 16.9284V24.0449Z" fill="white"/>
<path d="M15.1332 17.931C15.0335 17.6958 14.7581 17.5796 14.5207 17.6773C13.9594 17.9395 14.2968 18.7556 14.8795 18.543C15.1172 18.4446 15.2279 18.1683 15.1332 17.931Z" fill="white"/>
<path d="M14.9602 20.0969C14.7464 19.953 14.446 20.0164 14.3069 20.2325C13.9955 20.7647 14.7257 21.2428 15.0902 20.747C15.2304 20.5372 15.1745 20.2349 14.9602 20.0969Z" fill="white"/>
<path d="M15.1327 22.6839C15.0402 22.4653 14.7919 22.3458 14.5638 22.4152C13.9696 22.6265 14.2451 23.4808 14.8504 23.3072C15.1036 23.2218 15.2345 22.9303 15.1327 22.6839Z" fill="white"/>
<path d="M10.4281 17.9307C10.3331 17.6939 10.0502 17.5805 9.81622 17.677C9.25416 17.9402 9.59116 18.7542 10.175 18.5432C10.4098 18.4464 10.5271 18.1654 10.4281 17.9307Z" fill="white"/>
<path d="M10.2553 20.0963C10.0401 19.9549 9.74146 20.0138 9.60171 20.2319C9.29058 20.7648 10.0204 21.2421 10.3847 20.7464C10.5257 20.5344 10.4688 20.2371 10.2553 20.0963Z" fill="white"/>
<path d="M10.4281 22.6834C10.3331 22.4462 10.0498 22.3334 9.81621 22.4302C9.2539 22.6933 9.59165 23.507 10.175 23.2959C10.4111 23.198 10.5255 22.9192 10.4281 22.6834Z" fill="white"/>
<path d="M18.9737 18.2895C19.073 18.5249 19.3485 18.6407 19.5856 18.5433C20.1474 18.2809 19.8112 17.4662 19.2275 17.6771C18.9925 17.7737 18.8746 18.0545 18.9737 18.2895Z" fill="white"/>
<path d="M19.3134 20.0264C19.0638 20.0787 18.8954 20.3258 18.9453 20.5777C19.1034 21.2009 19.9976 20.9875 19.8562 20.3603C19.7907 20.1281 19.5511 19.9788 19.3134 20.0264Z" fill="white"/>
<path d="M19.8381 22.6843C19.7394 22.4502 19.4671 22.3352 19.2309 22.4294C18.6714 22.6817 18.9871 23.4935 19.5701 23.3022C19.8149 23.2103 19.9379 22.9258 19.8381 22.6843Z" fill="white"/>
<path d="M17.0947 18.2051C16.8358 18.2051 16.626 18.4149 16.626 18.6738V22.3C16.6475 22.9207 17.5421 22.9202 17.5634 22.3V18.6738C17.5634 18.4149 17.3536 18.2051 17.0947 18.2051Z" fill="white"/>
<path d="M12.3037 18.2051C12.0448 18.2051 11.835 18.4149 11.835 18.6738V22.3C11.8565 22.9207 12.7511 22.9202 12.7724 22.3V18.6738C12.7724 18.4149 12.5626 18.2051 12.3037 18.2051Z" fill="white"/>
<path d="M10.1871 9.31685H14.9711L15.779 10.565C16.0622 11.0025 16.7338 10.9978 17.01 10.5545L17.7815 9.31685H22.4793C23.2216 9.31685 23.8255 8.71293 23.8255 7.97064V1.34621C23.8255 0.60392 23.2216 0 22.4793 0H10.1871C9.4448 0 8.84088 0.60392 8.84088 1.34621V2.33968C8.86269 2.96179 9.75867 2.9576 9.77835 2.33968V1.34627C9.77835 1.1209 9.96172 0.937535 10.1871 0.937535H22.4793C22.7047 0.937535 22.888 1.1209 22.888 1.34627V7.9707C22.888 8.19607 22.7047 8.37944 22.4793 8.37944H17.5213C17.3595 8.37944 17.2091 8.46294 17.1235 8.60025L16.3878 9.78046L15.6195 8.5935C15.5331 8.46 15.385 8.37944 15.226 8.37944H10.187C9.96166 8.37944 9.77829 8.19607 9.77829 7.9707V4.20819C9.77829 3.94926 9.56842 3.73945 9.30956 3.73945C9.05069 3.73945 8.84082 3.94926 8.84082 4.20819V7.97064C8.84088 8.71293 9.4448 9.31685 10.1871 9.31685Z" fill="white"/>
<path d="M17.3634 2.99997C17.9841 2.97847 17.9836 2.08381 17.3634 2.0625H15.5537C15.2948 2.0625 15.085 2.27231 15.085 2.53124V6.82617C15.085 7.0851 15.2948 7.29491 15.5537 7.29491H17.3634C17.9841 7.27341 17.9836 6.37875 17.3634 6.35744H16.0224V5.14747H17.23C17.8506 5.12597 17.8501 4.23131 17.23 4.21H16.0224V3.00003H17.3634V2.99997Z" fill="white"/>
<path d="M12.8401 2.02253H11.581C11.3222 2.02253 11.1123 2.23233 11.1123 2.49126V6.82576C11.1123 7.10457 11.3431 7.25806 11.5831 7.2945C11.5831 7.2945 12.7409 7.28937 13.0599 7.28937C14.636 7.28562 15.2846 5.26231 14.0329 4.34015C14.7263 3.39505 14.0212 2.01134 12.8401 2.02253ZM12.8401 2.96C13.5406 2.98663 13.5402 3.99078 12.8401 4.01728C12.5767 4.01728 12.3133 4.01866 12.0498 4.01847V2.96H12.8401ZM13.06 6.3519C12.8752 6.3519 12.41 6.35359 12.0498 6.35509V4.95719C12.3865 4.95588 12.7233 4.95557 13.06 4.95594C13.9849 4.99113 13.9842 6.31703 13.06 6.3519Z" fill="white"/>
<path d="M19.8829 7.29443C20.1418 7.29443 20.3517 7.08462 20.3517 6.8257V2.95993H21.0846C21.7053 2.93843 21.7048 2.04377 21.0846 2.02246H18.6909C18.0702 2.04396 18.0707 2.93862 18.6909 2.95993H19.4142V6.8257C19.4142 7.08456 19.6241 7.29443 19.8829 7.29443Z" fill="white"/>
</g>
<defs>
<clipPath id="clip0_1454_217">
<rect width="32" height="32" fill="white" transform="translate(0.333008)"/>
</clipPath>
</defs>
</svg>
