<svg width="24" height="24" viewBox="0 0 24 24" fill="none" xmlns="http://www.w3.org/2000/svg">
<path d="M11.0763 21.0235C11.0127 21.0235 10.9497 21.0103 10.8914 20.9848C10.833 20.9593 10.7806 20.922 10.7374 20.8752L1.59955 10.9907C1.53863 10.9248 1.49825 10.8426 1.48334 10.7541C1.46843 10.6656 1.47965 10.5747 1.51561 10.4924C1.55157 10.4102 1.61072 10.3403 1.68582 10.2911C1.76092 10.242 1.84872 10.2159 1.93846 10.2159H6.33692C6.40296 10.2159 6.46823 10.23 6.52832 10.2574C6.58842 10.2848 6.64195 10.3248 6.68529 10.3746L9.7392 13.888C10.0692 13.1825 10.7081 12.0078 11.8293 10.5764C13.4868 8.46021 16.5698 5.34801 21.8444 2.53854C21.9464 2.48425 22.065 2.47016 22.1768 2.49905C22.2886 2.52794 22.3856 2.59771 22.4485 2.69459C22.5114 2.79147 22.5357 2.90841 22.5165 3.02232C22.4974 3.13623 22.4363 3.23883 22.3452 3.30986C22.3251 3.3256 20.2913 4.92714 17.9508 7.86063C15.7967 10.5602 12.9332 14.9743 11.5242 20.6729C11.4994 20.7731 11.4419 20.862 11.3607 20.9256C11.2795 20.9891 11.1793 21.0237 11.0762 21.0237L11.0763 21.0235Z" fill="#5BA8B3"/>
</svg>
