<svg width="32" height="32" viewBox="0 0 32 32" fill="none" xmlns="http://www.w3.org/2000/svg">
<path d="M30.2812 4.86021H18.4935V2.34432C18.4935 1.05197 17.4421 0.000617178 16.1497 0.000617178H5.12506C5.12406 -0.00132028 2.34588 0.00205465 2.34375 0.000617178C1.05138 0.000617178 0 1.05197 0 2.34432V4.27135C0 4.53022 0.209875 4.74009 0.46875 4.74009C0.727625 4.74009 0.9375 4.53022 0.9375 4.27135V2.34432C0.9375 1.5689 1.56831 0.938099 2.34375 0.938099H4.88981L5.96962 2.34013C6.29275 2.75969 6.80175 3.01018 7.33138 3.01018H11.1652C11.6955 3.01018 12.205 2.75913 12.5281 2.33857L13.6041 0.938099H16.1497C16.9252 0.938099 17.556 1.5689 17.556 2.34432V4.86021H12.7702C11.8225 4.86021 11.0515 5.6312 11.0515 6.57893V16.0157C11.0515 16.9634 11.8225 17.7344 12.7702 17.7344H14.507V19.5582C14.507 20.2396 15.3709 20.5804 15.8407 20.1107L17.5561 18.3953V29.6563C17.5561 30.4317 16.9253 31.0625 16.1498 31.0625H2.34375C1.56831 31.0625 0.9375 30.4317 0.9375 29.6563V6.14637C0.9375 5.8875 0.727625 5.67763 0.46875 5.67763C0.209875 5.67763 0 5.8875 0 6.14637V29.6563C0 30.9486 1.05138 32 2.34375 32H16.1497C17.4421 32 18.4935 30.9486 18.4935 29.6563V17.7345H26.5895C26.8484 17.7345 27.0583 17.5246 27.0583 17.2657C27.0583 17.0069 26.8484 16.797 26.5895 16.797H18.0228C17.8985 16.797 17.7792 16.8464 17.6914 16.9343L15.4445 19.1811V17.2657C15.4445 17.0069 15.2346 16.797 14.9757 16.797H12.7702C12.3394 16.797 11.989 16.4465 11.989 16.0157V6.57899C11.989 6.14819 12.3394 5.79776 12.7702 5.79776H30.2812C30.7121 5.79776 31.0625 6.14819 31.0625 6.57899V16.0157C31.0625 16.4465 30.7121 16.797 30.2812 16.797H28.5625C27.9404 16.8185 27.9438 17.7141 28.5625 17.7345H30.2812C31.229 17.7345 32 16.9635 32 16.0157V6.57899C32 5.63126 31.229 4.86021 30.2812 4.86021ZM11.7846 1.7674C11.6377 1.95858 11.4061 2.0727 11.1651 2.0727H7.33131C7.09063 2.0727 6.85925 1.95883 6.71238 1.76815L6.07306 0.938099H12.4218L11.7846 1.7674Z" fill="white"/>
<path d="M22.994 8.73533C23.6146 8.71383 23.6141 7.81916 22.994 7.79785H20.416C20.1571 7.79785 19.9473 8.00772 19.9473 8.26659V14.3848C19.9473 14.6437 20.1571 14.8536 20.416 14.8536H22.994C23.6146 14.8321 23.6141 13.9374 22.994 13.9161H20.8847V11.7945H22.8039C23.4246 11.773 23.4241 10.8783 22.8039 10.857H20.8847V8.73533H22.994Z" fill="white"/>
<path d="M16.5499 7.74122H14.7563C14.4975 7.74122 14.2876 7.9511 14.2876 8.20997V14.3846C14.2876 14.6634 14.5185 14.8169 14.7584 14.8533C14.7749 14.8533 16.4141 14.846 16.8631 14.846C19.0259 14.8329 19.7858 11.9871 17.9589 10.8884C19.0401 9.696 18.1752 7.73529 16.5499 7.74122ZM16.5499 8.67871C17.8114 8.72671 17.8107 10.5352 16.5499 10.5828C16.1083 10.5828 15.6667 10.585 15.2251 10.5844V8.67864H16.5499V8.67871ZM16.8632 13.9085C16.5657 13.9085 15.7505 13.9117 15.2251 13.9139V11.5246C15.7712 11.5223 16.3172 11.522 16.8632 11.522C18.4441 11.5819 18.4436 13.8489 16.8632 13.9085Z" fill="white"/>
<path d="M26.5819 14.8533C26.8407 14.8533 27.0506 14.6435 27.0506 14.3846V8.67869H28.2938C28.9144 8.65719 28.9139 7.76252 28.2938 7.74121H24.8838C24.2631 7.76271 24.2636 8.65738 24.8838 8.67869H26.1131V14.3846C26.1131 14.6435 26.323 14.8533 26.5819 14.8533Z" fill="white"/>
<path d="M9.24711 6.73535H3.56298C2.9423 6.75685 2.9428 7.65152 3.56298 7.67283H9.24711C9.86779 7.65133 9.86735 6.75666 9.24711 6.73535Z" fill="white"/>
<path d="M3.56298 15.7495H9.24711C9.86779 15.728 9.86729 14.8333 9.24711 14.812H3.56298C2.9423 14.8336 2.9428 15.7282 3.56298 15.7495Z" fill="white"/>
<path d="M9.24716 9.42773H5.68798C5.0673 9.44923 5.0678 10.3439 5.68798 10.3652H9.24716C9.86783 10.3437 9.86739 9.44898 9.24716 9.42773Z" fill="white"/>
<path d="M9.24716 12.1196H5.68798C5.0673 12.1411 5.0678 13.0358 5.68798 13.0571H9.24716C9.86783 13.0356 9.86739 12.1409 9.24716 12.1196Z" fill="white"/>
<path d="M5.47594 26.1997H13.017C16.2335 26.0773 16.231 21.4665 13.017 21.3452H5.47594C2.25938 21.4676 2.26188 26.0785 5.47594 26.1997ZM5.47594 22.2827H13.017C14.9912 22.3578 14.9897 25.1879 13.017 25.2623H5.47594C3.50173 25.1871 3.50316 22.3571 5.47594 22.2827Z" fill="white"/>
<path d="M5.49657 27.5938C4.87589 27.6152 4.87639 28.5099 5.49657 28.5312H12.9964C13.6171 28.5097 13.6166 27.6151 12.9964 27.5938H5.49657Z" fill="white"/>
</svg>
