<svg width="24" height="24" viewBox="0 0 24 24" fill="none" xmlns="http://www.w3.org/2000/svg">
<g clip-path="url(#clip0_1299_1640)">
<path d="M9.16872 12.5408L8.19049 10.5844H6.60772L5.62954 12.5408V9.1687H4.21387V14.8314H6.06698L7.39913 12.1671L8.73123 14.8314H10.5844V9.1687H9.16872V12.5408Z" fill="#41AF5A"/>
<path d="M12 9.1687H13.4157V14.8314H12V9.1687Z" fill="#41AF5A"/>
<path d="M18.3707 12.5408L16.6847 9.1687H14.8315V14.8314H16.2472V11.4593L17.9332 14.8314H19.7864V9.1687H18.3707V12.5408Z" fill="#41AF5A"/>
<path d="M24 12L22.7701 9.85752L23.0897 7.40628L21.1299 5.89986L20.4855 3.51464L18.1002 2.87018L16.5938 0.910372L14.1426 1.22994L12 0L9.85752 1.22989L7.40628 0.910325L5.89986 2.87009L3.5146 3.5146L2.87014 5.89982L0.910325 7.40624L1.22989 9.85747L0 12L1.22989 14.1425L0.910325 16.5937L2.87009 18.1001L3.51455 20.4854L5.89977 21.1298L7.40619 23.0896L9.85743 22.77L12 24L14.1424 22.77L16.5937 23.0896L18.1001 21.1299L20.4853 20.4854L21.1298 18.1002L23.0896 16.5938L22.77 14.1425L24 12ZM21.5804 15.9683L19.8879 17.2692L19.3309 19.3309L17.2692 19.8879L15.9682 21.5804L13.8519 21.3045L12 22.3676L10.1481 21.3046L8.03173 21.5805L6.73077 19.8879L4.66908 19.3309L4.11206 17.2692L2.41957 15.9683L2.69549 13.8519L1.63241 12L2.69549 10.1481L2.41957 8.03177L4.11211 6.73082L4.66913 4.66913L6.73082 4.11211L8.03177 2.41962L10.1481 2.69554L12 1.63246L13.8519 2.69554L15.9683 2.41962L17.2692 4.11215L19.3309 4.66917L19.8879 6.73087L21.5804 8.03182L21.3045 10.1482L22.3676 12L21.3046 13.8519L21.5804 15.9683Z" fill="#41AF5A"/>
</g>
<defs>
<clipPath id="clip0_1299_1640">
<rect width="24" height="24" fill="white"/>
</clipPath>
</defs>
</svg>
